<svg xmlns="http://www.w3.org/2000/svg" viewBox="0 0 64 64" width="480px" height="480px"><radialGradient id="rQqjnSUGxprE2SEHQ~MXka" cy="1758" r="32" gradientTransform="translate(0 -1726)" gradientUnits="userSpaceOnUse" cx="32"><stop offset="0" stop-color="#f4e9c3"/><stop offset=".219" stop-color="#f8eecd"/><stop offset=".644" stop-color="#fdf4dc"/><stop offset="1" stop-color="#fff6e1"/></radialGradient><linearGradient id="rQqjnSUGxprE2SEHQ~MXkb" x1="32" x2="32" y1="58.447" y2="7.25" gradientUnits="userSpaceOnUse"><stop offset="0" stop-color="#155cde"/><stop offset=".278" stop-color="#1f7fe5"/><stop offset=".569" stop-color="#279ceb"/><stop offset=".82" stop-color="#2cafef"/><stop offset="1" stop-color="#2eb5f0"/></linearGradient><path d="M32,45C15.467,45,3,39.411,3,32s12.467-13,29-13c16.532,0,29,5.589,29,13S48.532,45,32,45z M32,23c-14.309,0-25,4.751-25,9c0,4.248,10.691,9,25,9s25-4.752,25-9C57,27.751,46.309,23,32,23z" fill="url(#rQqjnSUGxprE2SEHQ~MXkb)"/><linearGradient id="rQqjnSUGxprE2SEHQ~MXkc" x1="31.999" x2="31.999" y1="58.191" y2="5.21" gradientUnits="userSpaceOnUse"><stop offset="0" stop-color="#155cde"/><stop offset=".278" stop-color="#1f7fe5"/><stop offset=".569" stop-color="#279ceb"/><stop offset=".82" stop-color="#2cafef"/><stop offset="1" stop-color="#2eb5f0"/></linearGradient><path fill="url(#rQqjnSUGxprE2SEHQ~MXkc)" d="M42.969,58.022c-2.744,0-5.962-1.361-9.386-4.021c-4.549-3.533-9.109-9.038-12.842-15.503 c-8.266-14.317-9.66-27.908-3.242-31.614l0,0c6.417-3.706,17.492,4.297,25.759,18.614c3.732,6.465,6.22,13.167,7.005,18.872 c0.869,6.314-0.468,10.84-3.764,12.742C45.445,57.722,44.259,58.022,42.969,58.022z M19.499,10.349 c-3.679,2.124-2.448,13.759,4.706,26.15c3.48,6.027,7.682,11.121,11.831,14.344c3.559,2.763,6.721,3.815,8.463,2.806 c1.742-1.005,2.415-4.27,1.801-8.732c-0.716-5.204-3.026-11.39-6.507-17.417C32.64,15.109,23.183,8.228,19.499,10.349L19.499,10.349 z"/><linearGradient id="rQqjnSUGxprE2SEHQ~MXkd" x1="32" x2="32" y1="57.809" y2="5.933" gradientUnits="userSpaceOnUse"><stop offset="0" stop-color="#155cde"/><stop offset=".278" stop-color="#1f7fe5"/><stop offset=".569" stop-color="#279ceb"/><stop offset=".82" stop-color="#2cafef"/><stop offset="1" stop-color="#2eb5f0"/></linearGradient><path fill="url(#rQqjnSUGxprE2SEHQ~MXkd)" d="M21.01,58.017c-1.274,0-2.456-0.292-3.511-0.901c-3.295-1.903-4.632-6.428-3.763-12.742 c0.785-5.706,3.272-12.408,7.005-18.872l0,0c3.732-6.464,8.293-11.97,12.842-15.502c5.032-3.91,9.619-5.016,12.916-3.112 c3.296,1.902,4.633,6.428,3.764,12.742c-0.785,5.706-3.272,12.408-7.005,18.872C36.351,50.463,27.484,58.017,21.01,58.017z M24.205,27.501c-3.479,6.026-5.79,12.212-6.506,17.417c-0.614,4.463,0.059,7.728,1.8,8.732c3.681,2.129,13.141-4.758,20.294-17.149 c3.48-6.027,5.791-12.212,6.507-17.417c0.614-4.462-0.059-7.727-1.801-8.733c-1.738-1.004-4.904,0.044-8.463,2.807 C31.887,16.38,27.685,21.474,24.205,27.501L24.205,27.501z"/><linearGradient id="rQqjnSUGxprE2SEHQ~MXke" x1="32" x2="32" y1="29" y2="39" gradientTransform="matrix(1 0 0 -1 0 66)" gradientUnits="userSpaceOnUse"><stop offset="0" stop-color="#155cde"/><stop offset=".278" stop-color="#1f7fe5"/><stop offset=".569" stop-color="#279ceb"/><stop offset=".82" stop-color="#2cafef"/><stop offset="1" stop-color="#2eb5f0"/></linearGradient><circle cx="32" cy="32" r="5" fill="url(#rQqjnSUGxprE2SEHQ~MXke)"/></svg>
