<?xml version="1.0" encoding="UTF-8"?>
<svg width="500" height="500" version="1.1" viewBox="0 0 500 500" xml:space="preserve" xmlns="http://www.w3.org/2000/svg" xmlns:cc="http://creativecommons.org/ns#" xmlns:dc="http://purl.org/dc/elements/1.1/" xmlns:rdf="http://www.w3.org/1999/02/22-rdf-syntax-ns#"><metadata><rdf:RDF><cc:Work rdf:about=""><dc:format>image/svg+xml</dc:format><dc:type rdf:resource="http://purl.org/dc/dcmitype/StillImage"/><dc:title/></cc:Work></rdf:RDF></metadata><defs><clipPath id="clipPath28"><path d="m0 612h792v-612h-792z"/></clipPath></defs><g transform="matrix(1.3333 0 0 -1.3333 -292.33 971.82)"><g transform="matrix(2.1748 0 0 2.1628 -4.4869 -120.45)"><g clip-path="url(#clipPath28)"><g transform="translate(230.8 344.53)"><path d="m0 0 41.712 24.083-20.856 12.041-20.857 12.041z" fill="#88288f" fill-rule="evenodd"/></g><g transform="translate(189.09 320.45)"><path d="M 0,0 41.713,24.083 0,48.166 Z" fill="#ca1f25" fill-rule="evenodd"/></g><g transform="translate(209.94 356.57)"><path d="m0 0 20.856-12.042-1e-3 48.165-20.855-12.041-20.856-12.04z" fill="#ce3d95" fill-rule="evenodd"/></g><g transform="translate(189.09 320.45)"><path d="m0 0v48.165l-41.711-24.082z" fill="#da1e25" fill-rule="evenodd"/></g><g transform="translate(147.37 344.53)"><path d="m0 0 41.712 24.083-41.713 24.082z" fill="#ed2524" fill-rule="evenodd"/></g><g transform="translate(147.37 344.53)"><path d="m0 0-1e-3 25.777v22.388l-41.712-24.082z" fill="#f06022" fill-rule="evenodd"/></g><g transform="translate(275.3 363.8)"><path d="m0 0-41.712-24.083 41.712-24.083v24.083z" fill="#006493" fill-rule="evenodd"/></g><g transform="translate(275.3 315.64)"><path d="m0 0-41.711 24.083v-48.165l20.855 12.04z" fill="#007fb4" fill-rule="evenodd"/></g><g transform="translate(233.59 315.64)"><path d="M 0,0 V 24.082 L -41.713,0 0,-24.083 Z" fill="#00a1b6" fill-rule="evenodd"/></g><g transform="translate(191.88 315.64)"><path d="m0 0 1e-3 -48.165 41.712 24.083-20.857 12.041z" fill="#00b0d4" fill-rule="evenodd"/></g><g transform="translate(212.73 279.51)"><path d="m0 0-20.855-12.041 41.711-24.083v48.166z" fill="#4ac4dc" fill-rule="evenodd"/></g><g transform="translate(233.59 243.39)"><path d="m0 0-22.581 13.037-19.13 11.046-1e-3 -48.166 20.856 12.042z" fill="#2cb89a" fill-rule="evenodd"/></g><g transform="translate(144.59 339.73)"><path d="m0 0-41.713 24.083v-48.166z" fill="#f37b20" fill-rule="evenodd"/></g><g transform="translate(144.59 339.73)"><path d="m0 0-41.713-24.083 20.856-12.042 20.857-12.041z" fill="#f6921e" fill-rule="evenodd"/></g><g transform="translate(144.59 339.73)"><path d="m0 0-1e-3 -24.083 1e-3 -24.083 41.711 24.083z" fill="#ffcc07" fill-rule="evenodd"/></g><g transform="translate(165.44 303.6)"><path d="m0 0-20.856-12.041 41.713-24.082-1e-3 48.164z" fill="#ffe700" fill-rule="evenodd"/></g><g transform="translate(186.3 219.31)"><path d="m0 0 1e-3 48.166-41.713-24.084 20.856-12.041z" fill="#a0cc3a" fill-rule="evenodd"/></g><g transform="translate(144.59 243.4)"><path d="M 0,0 19.506,11.263 41.713,24.084 20.856,36.124 0,48.166 V 24.083 Z" fill="#b7d334" fill-rule="evenodd"/></g></g></g></g></svg>
