<?xml version="1.0" encoding="UTF-8" standalone="no"?>
<!DOCTYPE svg PUBLIC "-//W3C//DTD SVG 1.1//EN" "http://www.w3.org/Graphics/SVG/1.1/DTD/svg11.dtd">
<!-- Created with Vectornator (http://vectornator.io/) -->
<svg height="100%" stroke-miterlimit="10" style="fill-rule:nonzero;clip-rule:evenodd;stroke-linecap:round;stroke-linejoin:round;" version="1.1" viewBox="0 0 105 99.642" width="100%" xml:space="preserve" xmlns="http://www.w3.org/2000/svg" xmlns:vectornator="http://vectornator.io" xmlns:xlink="http://www.w3.org/1999/xlink">
<defs/>
<clipPath id="ArtboardFrame">
<rect height="99.642" width="105" x="0" y="0"/>
</clipPath>
<g clip-path="url(#ArtboardFrame)" id="Untitled" vectornator:layerName="Untitled">
<path d="M88.6562 0L48.0312 10.5312L41.9688 20.9062L29.7812 20.8125L0 49.7812L29.7812 78.75L41.9688 78.6562L48.0312 89L88.6562 99.6562L99.5625 60.125L93.4062 49.875L99.5625 39.5938L88.6562 0ZM74.0625 14.75L56.1875 44.8125L20.4375 44.8125L43 22.5625L74.0625 14.75ZM82.7812 19.7188L91.4062 49.7812L82.7812 79.8438L64.9062 49.7812L82.7812 19.7188ZM20.5312 54.625L56.2812 54.625L74.1562 84.6875L43 76.9062L20.5312 54.625Z" fill="#110b09" fill-rule="nonzero" opacity="1" stroke="none"/>
</g>
</svg>
